<?xml version="1.0" standalone="no"?>
<!DOCTYPE svg PUBLIC "-//W3C//DTD SVG 20010904//EN"
 "http://www.w3.org/TR/2001/REC-SVG-20010904/DTD/svg10.dtd">
<svg version="1.0" xmlns="http://www.w3.org/2000/svg"
 width="192.000000pt" height="192.000000pt" viewBox="0 0 192.000000 192.000000"
 preserveAspectRatio="xMidYMid meet">
<metadata>
Created by potrace 1.11, written by Peter Selinger 2001-2013
</metadata>
<g transform="translate(0.000000,192.000000) scale(0.100000,-0.100000)"
fill="#000000" stroke="none">
<path d="M400 1200 l-240 -240 240 -240 240 -240 56 56 c31 30 54 57 52 59 -1
2 -84 85 -182 184 l-179 181 182 181 c99 100 181 185 181 188 0 3 -25 30 -55
59 l-54 53 -241 -241z"/>
<path d="M1221 1383 l-54 -55 184 -184 184 -184 -184 -184 -184 -184 57 -56
56 -56 240 240 240 240 -240 240 c-132 132 -241 240 -242 239 -2 0 -27 -25
-57 -56z"/>
</g>
</svg>
